# xmcd
#
# Track frame offsets:
#	150
#	23719
#	38227
#	53724
#	66394
#	85290
#	101112
#	118747
#	136793
#	154751
#	172168
#	187970
#	201293
#	219654
#	238569
#	260669
#	277633
#	302383
#	317828
#	332483
#
# Disc length: 4676 seconds
#
# Revision: 0
# Processed by: cddbd v1.5.2PL0 Copyright (c) Steve Scherf et al.
# Submitted via: EasyCDDAExtractor 11.6.0.1
#
DISCID=1b124214
DTITLE=Various Artist - Puissance Dancefloor 2007 Vol.2 [CD4)
DYEAR=2008
DGENRE=Club
TTITLE0=Hardrive - Deep Inside
TTITLE1=Bob Sinclar - I Feel For You
TTITLE2=Soulsearcher - Can't Get Enough
TTITLE3=Cleptomaniacs - All I Do
TTITLE4=Robin S - Show Me Love
TTITLE5=Gala - Feed From Desire
TTITLE6=Dr Alban - Sing Hallelujah
TTITLE7=Bass Bumpers - The Music's Got Me
TTITLE8=Tom Wilson- Technocat
TTITLE9=Lady - Easy Love
TTITLE10=2 Unlimited - No Limit
TTITLE11=Juice T - Love U For Life
TTITLE12=Armand Van Helden - Witch Doktor (Ep Version)
TTITLE13=Barbara Tucker - Beautiful People (Original Club Mix)
TTITLE14=Black Legend - You See The Trouble With Me
TTITLE15=Ann Lee - Two Times
TTITLE16=Josh Wink - Higher State Of Consciousness (Tweekin' Acid Funk Mix)
TTITLE17=Cunnie Williams - Saturday (Mousse T's House Edit)
TTITLE18=Martin Solveig - Edony
TTITLE19=Salome De Bahia - Outro Lugar
EXTD=
EXTT0=
EXTT1=
EXTT2=
EXTT3=
EXTT4=
EXTT5=
EXTT6=
EXTT7=
EXTT8=
EXTT9=
EXTT10=
EXTT11=
EXTT12=
EXTT13=
EXTT14=
EXTT15=
EXTT16=
EXTT17=
EXTT18=
EXTT19=
PLAYORDER=
